<?xml version="1.0" encoding="utf-8"?>
<!-- Generator: Adobe Illustrator 18.1.0, SVG Export Plug-In . SVG Version: 6.00 Build 0)  -->
<svg version="1.1" id="Layer_1" xmlns="http://www.w3.org/2000/svg" xmlns:xlink="http://www.w3.org/1999/xlink" x="0px" y="0px"
	 viewBox="0 0 16 16" enable-background="new 0 0 16 16" xml:space="preserve">
<g>
	<g>
		<path fill="#010101" d="M8,0C4.8,0,2.1,2.6,2.1,5.9c0,4.2,5,9.6,5.2,9.9C7.5,15.9,7.8,16,8,16c0.2,0,0.5-0.1,0.6-0.3
			c0.2-0.2,5.2-5.7,5.2-9.9C13.9,2.6,11.2,0,8,0z M6,6c0-1.1,0.9-2,2-2s2,0.9,2,2c0,1.1-0.9,2-2,2C6.9,8,6,7.1,6,6z"/>
	</g>
</g>
</svg>
