<?xml version="1.0" encoding="utf-8"?>
<!-- Generator: Adobe Illustrator 17.0.0, SVG Export Plug-In . SVG Version: 6.00 Build 0)  -->
<!DOCTYPE svg PUBLIC "-//W3C//DTD SVG 1.1//EN" "http://www.w3.org/Graphics/SVG/1.1/DTD/svg11.dtd">
<svg version="1.1" id="Layer_1" xmlns="http://www.w3.org/2000/svg" xmlns:xlink="http://www.w3.org/1999/xlink" x="0px" y="0px"
	 width="200px" height="200px" viewBox="0 0 200 200" enable-background="new 0 0 200 200" xml:space="preserve">
<g>
	<path d="M176.648,14.768l-2.188-2.188c-16.044-16.773-42.297-16.773-59.07,0l-87.511,88.97
		c-10.21,10.939-16.773,25.524-16.773,40.839c-0.729,16.044,5.105,29.9,16.044,40.839l2.917,2.917
		C39.547,195.624,52.673,200,65.8,200c17.502,0,35.734-7.293,47.402-19.69l37.192-37.192c2.917-2.917,2.917-7.293,0-10.21
		c-2.917-2.917-7.293-2.917-10.21,0L102.992,170.1c-16.044,16.044-46.673,21.878-62.716,5.834l-3.646-2.917
		c-8.022-8.022-11.668-18.232-11.668-29.9c0-11.668,5.105-22.607,12.397-30.629l87.511-88.97c10.939-10.939,27.712-10.939,38.651,0
		l2.188,2.188c10.939,10.939,10.939,27.712,0.729,38.651l-0.729,0.729l-0.729,0.729l-84.594,86.053
		c-2.917,3.646-7.293,5.105-10.939,5.834c-3.646,0-7.293-1.459-10.21-4.376c-2.917-2.917-4.376-6.563-4.376-10.939
		c0-4.376,2.188-8.022,5.105-11.668l59.799-60.529c2.917-2.917,2.917-7.293,0-10.21c-2.917-2.917-7.293-2.917-10.21,0L49.756,120.51
		c-5.834,5.834-9.48,13.127-9.48,21.149c-0.729,8.022,2.188,16.044,8.022,21.878c5.105,5.834,12.397,8.751,19.69,8.751h1.459
		c7.293-0.729,14.585-3.646,20.419-9.48l85.324-86.782l0.729-0.729c0,0,0.729,0,0.729-0.729
		C193.421,57.794,192.692,31.541,176.648,14.768"/>
</g>
</svg>
