<?xml version="1.0" encoding="utf-8"?>
<!-- Generator: Adobe Illustrator 18.1.0, SVG Export Plug-In . SVG Version: 6.00 Build 0)  -->
<svg version="1.1" id="Layer_1" xmlns="http://www.w3.org/2000/svg" xmlns:xlink="http://www.w3.org/1999/xlink" x="0px" y="0px"
	 viewBox="0 0 16 16" enable-background="new 0 0 16 16" xml:space="preserve">
<path d="M3.6,6.3C3.8,6.5,4,6.8,4,7.2v0.6C4,8.4,4.5,9,5.2,9h0.7c0.3,0,0.6,0.1,0.9,0.3l0.5,0.5c0.5,0.5,1.2,0.5,1.7,0l0.5-0.5
	C9.5,9.1,9.8,9,10.2,9h0.7C11.5,9,12,8.4,12,7.8V7.2c0-0.3,0.1-0.6,0.3-0.8l0.5-0.5c0.5-0.5,0.5-1.2,0-1.6l-0.5-0.5
	C12.1,3.5,12,3.2,12,2.9V2.3c0-0.7-0.5-1.2-1.2-1.2h-0.7C9.8,1.1,9.5,1,9.3,0.8L8.8,0.3c-0.5-0.5-1.2-0.5-1.7,0L6.7,0.8
	C6.4,1,6.1,1.1,5.8,1.1H5.2C4.5,1.1,4,1.6,4,2.3v0.6c0,0.3-0.1,0.6-0.3,0.8L3.1,4.2c-0.5,0.5-0.5,1.2,0,1.6L3.6,6.3z M14,13.8
	l-2.7-3.7c0-0.1-0.1-0.1-0.2-0.1c-0.1,0-0.1,0-0.2,0h-0.6c-0.1,0-0.1,0-0.2,0.1l-0.4,0.4c-0.5,0.5-1.1,0.7-1.8,0.7
	c-0.6,0-1.2-0.3-1.6-0.7l-0.3-0.3c0,0-0.1-0.1-0.2-0.1H5c-0.1,0-0.2,0-0.2,0.1L2,13.8c-0.1,0.1,0,0.3,0.2,0.4l1.6,0.1
	c0.1,0,0.2,0.1,0.2,0.1l0.6,1.5C4.7,16,5,16,5,15.9l2.8-3.7c0.1-0.1,0.3-0.1,0.4,0l2.8,3.7c0.1,0.1,0.3,0.1,0.4,0l0.6-1.5
	c0-0.1,0.1-0.1,0.2-0.1l1.6-0.1C14,14.2,14.1,13.9,14,13.8z"/>
</svg>
