<?xml version="1.0" encoding="utf-8"?>
<!-- Generator: Adobe Illustrator 17.0.0, SVG Export Plug-In . SVG Version: 6.00 Build 0)  -->
<!DOCTYPE svg PUBLIC "-//W3C//DTD SVG 1.1//EN" "http://www.w3.org/Graphics/SVG/1.1/DTD/svg11.dtd">
<svg version="1.1" id="Layer_1" xmlns="http://www.w3.org/2000/svg" xmlns:xlink="http://www.w3.org/1999/xlink" x="0px" y="0px"
	 width="200px" height="200px" viewBox="0 0 200 200" enable-background="new 0 0 200 200" xml:space="preserve">
<g>
	<g>
		<path d="M191.095,123.737h-33.381c-0.508-7.24-1.914-14.345-4.196-21.029c13.932-2.731,26.066-11.586,34.475-18.546
			c2.532-2.091,2.885-5.841,0.788-8.368c-2.084-2.529-5.841-2.881-8.364-0.788c-7.902,6.538-19.496,14.955-31.797,16.381
			c-2.869-5.349-6.284-10.149-10.143-14.29c2.032-4.977,3.122-10.33,3.122-15.739c0-14.447-7.411-27.192-18.624-34.653l5.187-12.609
			l24.667,12.301c0.852,0.424,1.756,0.626,2.647,0.626c2.184,0,4.283-1.209,5.326-3.293c1.461-2.94,0.268-6.507-2.672-7.973
			L127.746,0.608c-0.067-0.032-0.131-0.044-0.198-0.076c-0.067-0.028-0.124-0.076-0.195-0.103c-0.118-0.051-0.245-0.067-0.367-0.107
			c-0.198-0.067-0.392-0.131-0.588-0.173c-0.186-0.04-0.367-0.067-0.554-0.088c-0.202-0.023-0.405-0.047-0.603-0.055
			c-0.186-0.004-0.367,0.004-0.554,0.019c-0.198,0.012-0.392,0.032-0.586,0.063c-0.182,0.032-0.36,0.08-0.539,0.128
			c-0.19,0.051-0.371,0.102-0.559,0.169c-0.173,0.067-0.34,0.143-0.506,0.227c-0.175,0.083-0.345,0.169-0.512,0.268
			c-0.162,0.099-0.312,0.211-0.464,0.326c-0.154,0.114-0.301,0.234-0.443,0.365c-0.147,0.131-0.274,0.277-0.409,0.424
			c-0.127,0.142-0.25,0.285-0.369,0.439c-0.114,0.162-0.222,0.337-0.325,0.516c-0.067,0.11-0.147,0.206-0.206,0.325
			c-0.036,0.067-0.047,0.139-0.078,0.206c-0.032,0.067-0.076,0.118-0.099,0.186l-7.371,17.927
			c-3.868-1.193-7.973-1.838-12.225-1.838c-4.252,0-8.361,0.649-12.229,1.838L80.4,3.666c-0.028-0.067-0.07-0.122-0.099-0.19
			c-0.032-0.067-0.043-0.139-0.078-0.202c-0.059-0.118-0.143-0.215-0.206-0.325C79.913,2.77,79.81,2.6,79.692,2.438
			c-0.12-0.162-0.246-0.308-0.377-0.455c-0.127-0.143-0.253-0.281-0.392-0.409c-0.15-0.138-0.305-0.261-0.468-0.38
			c-0.142-0.107-0.285-0.215-0.436-0.305c-0.173-0.107-0.356-0.202-0.538-0.289c-0.158-0.076-0.318-0.15-0.48-0.215
			c-0.19-0.07-0.384-0.127-0.582-0.177c-0.171-0.044-0.341-0.088-0.519-0.12c-0.198-0.034-0.396-0.051-0.599-0.067
			c-0.183-0.011-0.36-0.023-0.543-0.019c-0.202,0.004-0.405,0.028-0.605,0.055c-0.187,0.025-0.369,0.048-0.556,0.092
			c-0.198,0.043-0.396,0.11-0.59,0.173c-0.122,0.04-0.245,0.061-0.365,0.107c-0.067,0.028-0.122,0.072-0.19,0.099
			c-0.067,0.032-0.139,0.044-0.202,0.08L41.864,15.756c-2.936,1.467-4.129,5.033-2.666,7.973c1.039,2.083,3.138,3.293,5.322,3.293
			c0.892,0,1.798-0.202,2.647-0.626l24.667-12.301l5.183,12.609c-11.215,7.462-18.628,20.206-18.628,34.653
			c0,5.449,1.113,10.842,3.174,15.85c-3.859,4.165-7.272,8.916-10.105,14.186C39.126,90,27.493,81.563,19.57,75.009
			c-2.532-2.093-6.275-1.736-8.368,0.793c-2.093,2.528-1.736,6.277,0.793,8.368c8.416,6.962,20.561,15.815,34.502,18.542
			c-2.259,6.566-3.689,13.639-4.205,21.033H8.896c-3.286,0-5.944,2.662-5.944,5.944c0,3.28,2.658,5.944,5.944,5.944h33.396
			c0.516,7.39,1.947,14.463,4.205,21.033c-13.936,2.726-26.086,11.582-34.498,18.54c-2.529,2.093-2.885,5.841-0.793,8.37
			c1.172,1.419,2.873,2.156,4.584,2.156c1.332,0,2.675-0.449,3.784-1.364c7.922-6.555,19.556-14.99,31.884-16.386
			C61.808,187.225,79.683,200,100,200s38.187-12.775,48.538-32.017c12.332,1.395,23.97,9.827,31.886,16.386
			c1.106,0.915,2.449,1.364,3.785,1.364c1.712,0,3.408-0.737,4.584-2.156c2.089-2.532,1.735-6.277-0.793-8.37
			c-8.416-6.958-20.561-15.815-34.498-18.54c2.254-6.566,3.689-13.639,4.203-21.033h33.397c3.282,0,5.944-2.664,5.944-5.944
			C197.048,126.407,194.377,123.737,191.095,123.737 M99.996,31.634c16.386,0,29.719,13.33,29.719,29.719
			c0,2.477-0.31,4.945-0.915,7.335c-0.008-0.004-0.017-0.012-0.028-0.017c-1.02-0.709-2.053-1.387-3.103-2.016
			c-0.832-0.499-1.681-0.956-2.529-1.408c-0.245-0.131-0.491-0.281-0.74-0.407c-7.031-3.599-14.596-5.473-22.405-5.473
			c-1.791,0-3.566,0.135-5.33,0.329c-0.36,0.04-0.721,0.08-1.081,0.127c-1.76,0.234-3.503,0.548-5.223,0.971
			c-0.043,0.012-0.087,0.028-0.135,0.04c-1.695,0.424-3.368,0.963-5.021,1.569c-0.241,0.088-0.483,0.175-0.725,0.266
			c-1.668,0.647-3.316,1.368-4.933,2.196c-0.12,0.063-0.238,0.135-0.356,0.198c-1.416,0.74-2.805,1.564-4.177,2.445
			c-0.352,0.226-0.709,0.451-1.058,0.685c-0.253,0.171-0.51,0.321-0.761,0.495c-0.605-2.386-0.919-4.854-0.919-7.335
			C70.276,44.968,83.61,31.634,99.996,31.634 M53.931,129.681c0-19.214,7.382-36.238,18.707-46.889
			c0.029-0.023,0.065-0.032,0.092-0.059c3.883-3.642,8.111-6.435,12.55-8.357c0.15-0.067,0.297-0.147,0.451-0.211
			c0.698-0.293,1.41-0.523,2.12-0.772c0.67-0.234,1.339-0.468,2.024-0.662c0.594-0.171,1.193-0.322,1.796-0.46
			c0.788-0.183,1.585-0.33,2.386-0.464v115.758C71.457,183.846,53.931,159.337,53.931,129.681 M105.94,187.566V71.795
			c0.222,0.036,0.44,0.059,0.662,0.099c0.535,0.099,1.066,0.217,1.593,0.341c0.542,0.122,1.077,0.266,1.613,0.411
			c0.563,0.158,1.121,0.318,1.676,0.499c0.531,0.175,1.058,0.377,1.581,0.578c0.52,0.198,1.047,0.385,1.562,0.603
			c0.999,0.432,1.99,0.9,2.964,1.419c0.211,0.111,0.413,0.242,0.615,0.354c0.883,0.491,1.754,1.002,2.614,1.56
			c0.162,0.103,0.318,0.219,0.48,0.326c0.978,0.658,1.95,1.351,2.896,2.1c1.046,0.828,2.065,1.712,3.067,2.647
			c0.056,0.051,0.124,0.083,0.183,0.135c4.886,4.608,9.097,10.44,12.276,17.276c4.144,8.928,6.336,19.144,6.336,29.534
			C146.061,159.341,128.535,183.846,105.94,187.566"/>
	</g>
</g>
</svg>
