<?xml version="1.0" encoding="utf-8"?>
<!-- Generator: Adobe Illustrator 17.0.0, SVG Export Plug-In . SVG Version: 6.00 Build 0)  -->
<!DOCTYPE svg PUBLIC "-//W3C//DTD SVG 1.1//EN" "http://www.w3.org/Graphics/SVG/1.1/DTD/svg11.dtd">
<svg version="1.1" id="Layer_1" xmlns="http://www.w3.org/2000/svg" xmlns:xlink="http://www.w3.org/1999/xlink" x="0px" y="0px"
	 width="200px" height="200px" viewBox="0 0 200 200" enable-background="new 0 0 200 200" xml:space="preserve">
<g>
	<path d="M123.669,120.845c-1.162-0.335-2.348-0.681-3.184-0.942c0.296-0.995,1.136-2.863,3.383-6.286l0.554-0.845
		c2.491-3.794,3.744-5.701,4.792-10.962c0.199-1.011,1.314-3.395,2.383-4.492c2.777-2.847,5.659-12.743,3.828-18.241
		c-0.064-0.194-0.227-0.579-0.485-1.098c-0.294-0.596-1.197-2.408-1.134-3.339c0.441-6.43-0.194-12.396-1.887-17.731
		c-2.434-7.691-9.443-14.653-17.865-17.732c-5.388-1.97-10.079-2.136-14.051-2.136c-3.972,0-8.667,0.169-14.052,2.136
		c-8.42,3.079-15.432,10.036-17.865,17.727c-1.69,5.348-2.328,11.313-1.887,17.737c0.064,0.932-0.839,2.744-1.136,3.339
		c-0.255,0.522-0.416,0.904-0.479,1.095c-1.834,5.504,1.048,15.401,3.825,18.253c1.072,1.094,2.183,3.475,2.386,4.486
		c1.048,5.261,2.295,7.161,4.787,10.956l0.554,0.845c2.251,3.42,3.09,5.294,3.389,6.292c-0.845,0.261-2.026,0.607-3.184,0.942
		c-17.674,5.18-34.854,10.934-40.842,17.935c-3.121,3.647-4.116,7.79-2.808,11.659c1.477,4.373,5.69,7.604,11.552,8.854
		c14.259,3.054,31.91,3.664,55.764,3.664c23.855,0,41.505-0.613,55.765-3.664c5.861-1.25,10.074-4.481,11.554-8.854
		c1.311-3.869,0.31-8.012-2.811-11.665C158.523,131.782,141.343,126.028,123.669,120.845 M159.446,147.775
		c-0.396,1.164-2.024,2.664-5.416,3.389c-13.546,2.902-30.716,3.482-54.027,3.482c-23.313,0-40.482-0.579-54.026-3.482
		c-3.395-0.726-5.025-2.225-5.413-3.389c-0.426-1.261,0.444-2.652,1.25-3.594c5.202-6.084,28.202-12.818,36.863-15.351
		c3.156-0.926,4.465-1.316,5.224-1.641c1.868-0.807,3.209-2.301,3.777-4.207c1.256-4.197-1.466-9.182-4.595-13.938l-0.549-0.834
		c-2.251-3.425-2.852-4.351-3.587-8.023c-0.488-2.453-2.336-6.367-4.476-8.547c-1.039-1.408-2.702-7.356-2.046-9.786l0.087-0.175
		c0.715-1.441,2.203-4.434,1.981-7.61c-0.369-5.379,0.147-10.313,1.521-14.659c1.66-5.247,6.799-10.24,12.79-12.432
		c4.113-1.505,7.791-1.63,11.199-1.63c3.409,0,7.086,0.125,11.197,1.63c5.994,2.192,11.135,7.188,12.793,12.432
		c1.377,4.346,1.89,9.28,1.521,14.653c-0.219,3.181,1.266,6.177,1.981,7.616l0.086,0.175c0.654,2.425-1.003,8.372-1.934,9.661
		c-2.253,2.311-4.101,6.225-4.586,8.672c-0.735,3.669-1.337,4.595-3.589,8.023l-0.551,0.846c-3.127,4.759-5.845,9.739-4.589,13.927
		c0.571,1.906,1.912,3.401,3.78,4.207c0.753,0.324,2.064,0.715,5.221,1.641c8.658,2.533,31.658,9.267,36.866,15.351
		C159.002,145.123,159.875,146.515,159.446,147.775 M197.214,130.706c-4.7-5.493-17.858-9.916-31.378-13.876
		c-0.507-0.147-0.967-0.283-1.369-0.401c0.366-0.782,1.02-1.974,2.195-3.762l0.274-0.419c1.904-2.893,2.947-4.486,3.784-8.671
		c0.121-0.621,0.911-2.248,1.535-2.885c2.27-2.325,4.676-10.224,3.14-14.817c-0.058-0.174-0.196-0.521-0.426-0.983
		c-0.622-1.253-0.752-1.79-0.752-2.009c0.344-4.989-0.155-9.631-1.471-13.799c-1.962-6.205-7.381-11.598-14.14-14.065
		c-4.229-1.548-7.887-1.676-10.986-1.676c-1.458,0-3.204,0.034-5.094,0.267c-2.278,0.279-3.896,2.356-3.616,4.634
		c0.28,2.278,2.35,3.902,4.633,3.616c1.444-0.174,2.869-0.199,4.077-0.199c2.494,0,5.174,0.089,8.131,1.172
		c4.256,1.555,7.902,5.077,9.065,8.767c1.004,3.173,1.378,6.776,1.106,10.719c-0.177,2.578,0.934,4.922,1.619,6.311
		c0.314,1.414-0.653,5.227-1.377,6.408c-1.835,1.962-3.218,5.005-3.597,6.923c-0.519,2.594-0.871,3.134-2.578,5.726l-0.426,0.651
		c-2.489,3.799-4.648,7.807-3.578,11.372c0.521,1.729,1.734,3.084,3.422,3.816c0.624,0.269,1.539,0.541,4.094,1.289
		c5.851,1.715,23.657,6.929,27.402,11.304c0.466,0.544,0.908,1.286,0.756,1.738c-0.15,0.438-1.042,1.402-3.357,1.899
		c-2.968,0.637-6.335,1.141-10.293,1.544c-2.284,0.23-3.949,2.27-3.716,4.556c0.217,2.14,2.02,3.74,4.129,3.74
		c0.141,0,0.283-0.006,0.424-0.022c4.262-0.43,7.924-0.982,11.194-1.683c4.794-1.025,8.257-3.708,9.492-7.364
		C200.627,137.283,199.781,133.707,197.214,130.706 M21.998,141.29c-3.958-0.402-7.325-0.904-10.296-1.544
		c-2.311-0.497-3.204-1.458-3.354-1.899c-0.152-0.451,0.291-1.194,0.756-1.738c3.744-4.376,21.548-9.589,27.402-11.304
		c2.555-0.749,3.47-1.02,4.091-1.289c1.69-0.732,2.907-2.087,3.425-3.817c1.07-3.562-1.088-7.569-3.724-11.596l-0.283-0.427
		c-1.704-2.593-2.059-3.134-2.575-5.723c-0.382-1.924-1.765-4.966-3.6-6.926c-0.751-1.222-1.765-5.269-1.355-6.449
		c0.579-1.169,1.782-3.597,1.596-6.268c-0.271-3.944,0.102-7.549,1.109-10.726c1.163-3.683,4.806-7.209,9.065-8.763
		c2.951-1.082,5.631-1.17,8.129-1.17c1.209,0,2.633,0.025,4.077,0.2c2.27,0.288,4.353-1.337,4.634-3.617
		c0.283-2.278-1.336-4.353-3.616-4.634c-1.89-0.233-3.637-0.267-5.094-0.267c-3.099,0-6.756,0.131-10.983,1.674
		c-6.759,2.472-12.181,7.862-14.14,14.065c-1.322,4.171-1.818,8.813-1.477,13.785c0,0.233-0.13,0.771-0.751,2.023
		c-0.23,0.463-0.371,0.812-0.419,0.962c-1.544,4.614,0.861,12.516,3.131,14.838c0.624,0.638,1.414,2.264,1.539,2.888
		c0.833,4.182,1.878,5.776,3.78,8.669l0.419,0.64c1.086,1.657,1.704,2.783,2.054,3.539c-0.408,0.119-0.868,0.252-1.375,0.401
		c-13.518,3.961-26.678,8.382-31.378,13.877c-2.566,3.001-3.408,6.576-2.317,9.808c1.237,3.656,4.695,6.339,9.489,7.364
		c3.274,0.702,6.934,1.253,11.197,1.682c0.143,0.017,0.285,0.022,0.423,0.022c2.109,0,3.914-1.596,4.129-3.739
		C25.948,143.563,24.285,141.52,21.998,141.29"/>
</g>
</svg>
