<?xml version="1.0" encoding="utf-8"?>
<!-- Generator: Adobe Illustrator 17.0.0, SVG Export Plug-In . SVG Version: 6.00 Build 0)  -->
<!DOCTYPE svg PUBLIC "-//W3C//DTD SVG 1.1//EN" "http://www.w3.org/Graphics/SVG/1.1/DTD/svg11.dtd">
<svg version="1.1" id="Layer_1" xmlns="http://www.w3.org/2000/svg" xmlns:xlink="http://www.w3.org/1999/xlink" x="0px" y="0px"
	 width="200px" height="200px" viewBox="0 0 200 200" enable-background="new 0 0 200 200" xml:space="preserve">
<path d="M75.232,109.278l-6.773,3.912c-0.956,0.551-1.284,1.772-0.731,2.727c0.369,0.641,1.04,1,1.732,1
	c0.338,0,0.682-0.085,0.997-0.268l6.773-3.913c0.956-0.55,1.283-1.771,0.731-2.727C77.404,109.046,76.182,108.715,75.232,109.278z
	 M61.687,117.097l-6.771,3.912c-0.956,0.551-1.284,1.772-0.731,2.727c0.369,0.641,1.04,0.997,1.732,0.997
	c0.338,0,0.681-0.085,0.997-0.268l6.771-3.913c0.956-0.55,1.283-1.771,0.731-2.727C63.859,116.871,62.638,116.54,61.687,117.097z
	 M34.595,132.739l-6.771,3.907c-0.956,0.551-1.284,1.772-0.731,2.728c0.369,0.64,1.04,0.999,1.73,0.999
	c0.338,0,0.682-0.085,0.997-0.268l6.771-3.908c0.956-0.55,1.284-1.771,0.731-2.727C36.77,132.512,35.543,132.181,34.595,132.739z
	 M48.142,124.92l-6.771,3.907c-0.956,0.551-1.284,1.772-0.731,2.728c0.369,0.64,1.04,0.999,1.732,0.999
	c0.338,0,0.681-0.085,0.997-0.268l6.771-3.908c0.956-0.55,1.283-1.771,0.731-2.727C50.317,124.693,49.093,124.356,48.142,124.92z
	 M187.368,52.669c-0.005-0.044-0.011-0.088-0.018-0.129c-0.152-1.96-1.217-3.742-2.937-4.734L103,0.802
	c-1.852-1.069-4.137-1.069-5.992,0L15.594,47.807c-1.717,0.992-2.784,2.773-2.937,4.734c-0.005,0.044-0.013,0.085-0.018,0.129
	c-0.005,0.109-0.044,0.214-0.044,0.323v94.012c0,2.141,1.144,4.119,2.996,5.188l81.416,47.005c0.066,0.039,0.144,0.051,0.212,0.088
	c0.325,0.17,0.664,0.312,1.019,0.421c0.119,0.036,0.233,0.08,0.352,0.108C99.044,199.926,99.511,200,100,200
	c0.488,0,0.955-0.074,1.41-0.186c0.119-0.029,0.235-0.073,0.352-0.108c0.356-0.111,0.694-0.25,1.02-0.421
	c0.07-0.037,0.145-0.049,0.212-0.088l81.416-47.005c1.852-1.069,2.996-3.045,2.996-5.188V52.995
	C187.409,52.884,187.372,52.781,187.368,52.669z M94.017,183.636l-69.436-40.089V63.722l64.924,37.483
	c-0.25,0.034-0.499,0.114-0.728,0.251l-6.771,3.912c-0.956,0.55-1.284,1.772-0.731,2.727c0.369,0.64,1.04,1,1.732,1
	c0.338,0,0.681-0.085,0.997-0.269l6.771-3.912c0.886-0.511,1.198-1.591,0.806-2.508l2.435,1.408V183.636z M100.005,93.435
	L30.262,53.17l69.743-40.265l69.741,40.265L100.005,93.435z M175.427,143.541l-69.433,40.092v-79.822l2.438-1.407
	c-0.395,0.916-0.083,1.999,0.802,2.51l6.772,3.912c0.315,0.184,0.655,0.269,0.996,0.269c0.69,0,1.361-0.36,1.733-1
	c0.552-0.955,0.225-2.177-0.731-2.727l-6.771-3.912c-0.233-0.137-0.481-0.214-0.732-0.251l64.925-37.486V143.541z M136.329,120.55
	l6.772,3.912c0.315,0.184,0.655,0.269,0.996,0.269c0.69,0,1.361-0.359,1.733-0.997c0.55-0.955,0.222-2.177-0.734-2.727l-6.771-3.912
	c-0.953-0.558-2.177-0.228-2.728,0.728C135.045,118.779,135.374,120,136.329,120.55z M122.784,112.73l6.772,3.912
	c0.315,0.184,0.658,0.269,0.996,0.269c0.69,0,1.361-0.359,1.733-1c0.55-0.952,0.222-2.174-0.733-2.724l-6.771-3.912
	c-0.958-0.56-2.177-0.23-2.728,0.728C121.501,110.96,121.829,112.181,122.784,112.73z M149.873,128.369l6.772,3.912
	c0.315,0.184,0.655,0.269,0.996,0.269c0.69,0,1.361-0.359,1.733-1c0.55-0.952,0.222-2.174-0.733-2.724l-6.771-3.912
	c-0.953-0.563-2.177-0.228-2.728,0.728C148.59,126.598,148.918,127.82,149.873,128.369z M163.421,136.189l6.772,3.912
	c0.315,0.184,0.655,0.269,0.996,0.269c0.69,0,1.361-0.359,1.733-1c0.55-0.952,0.222-2.174-0.733-2.724l-6.771-3.912
	c-0.956-0.558-2.177-0.228-2.728,0.728C162.138,134.418,162.466,135.639,163.421,136.189z"/>
</svg>
