<?xml version="1.0" encoding="utf-8"?>
<!-- Generator: Adobe Illustrator 18.1.0, SVG Export Plug-In . SVG Version: 6.00 Build 0)  -->
<svg version="1.1" id="Layer_1" xmlns="http://www.w3.org/2000/svg" xmlns:xlink="http://www.w3.org/1999/xlink" x="0px" y="0px"
	 viewBox="0 0 16 16" enable-background="new 0 0 16 16" xml:space="preserve">
<path d="M7,10.3L7,10.3c0-0.1,0-0.2,0-0.3C6.2,9.6,5.7,9,5.6,8.9c-0.2-0.1-0.2-1-0.2-1S5.8,7.4,6,7c0.2-0.4,0.3-1.7,0.3-1.7
	c0.1-0.3,0-0.7-0.1-1.1C6,3.5,5.6,2.9,4.9,2.7c0,0-0.3-0.1-0.6-0.1S3.9,2.7,3.9,2.7C3.2,2.9,2.8,3.5,2.6,4.2
	C2.5,4.6,2.5,4.9,2.5,5.3c0,0,0.1,1.4,0.3,1.7C3,7.4,3.4,7.9,3.4,7.9s0,0.9-0.2,1C3,9,0.9,9.9,0.4,10.2S0,11,0,11h5.3
	C5.9,10.7,6.1,10.7,7,10.3z M15.4,12.5c-0.6-0.4-3.6-1.6-3.8-1.7s-0.2-1.4-0.2-1.4s0.6-0.7,0.8-1.2c0.2-0.5,0.4-2.4,0.4-2.4
	c0.1-0.5,0-1-0.1-1.5c-0.3-1-0.9-1.8-1.8-2.2c0,0-0.4-0.1-0.8-0.1C9.6,2,9.2,2.1,9.2,2.1C8.3,2.5,7.7,3.3,7.4,4.3
	c-0.1,0.5-0.2,1-0.1,1.5c0,0,0.2,1.9,0.4,2.4c0.2,0.5,0.8,1.2,0.8,1.2s0,1.3-0.2,1.4s-3.2,1.4-3.8,1.7S3.8,14,3.8,14H16
	C16,14,16,12.8,15.4,12.5z"/>
</svg>
