<?xml version="1.0" encoding="utf-8"?>
<!-- Generator: Adobe Illustrator 17.0.0, SVG Export Plug-In . SVG Version: 6.00 Build 0)  -->
<!DOCTYPE svg PUBLIC "-//W3C//DTD SVG 1.1//EN" "http://www.w3.org/Graphics/SVG/1.1/DTD/svg11.dtd">
<svg version="1.1" id="Layer_1" xmlns="http://www.w3.org/2000/svg" xmlns:xlink="http://www.w3.org/1999/xlink" x="0px" y="0px"
	 width="200px" height="200px" viewBox="0 0 200 200" enable-background="new 0 0 200 200" xml:space="preserve">
<g>
	<path d="M43.158,88.419h75.789v-12.63H43.158V88.419z M43.158,126.313h75.789v-12.63H43.158V126.313z M43.158,50.525h75.789v-12.63
		H43.158V50.525z M182.103,29.475h-29.471V8.42c0-5.264-3.156-8.42-8.422-8.42H17.894C12.63,0,9.475,3.156,9.475,8.42v155.787
		c0,5.268,3.156,8.426,8.419,8.426h29.473v18.948c0,5.264,3.158,8.42,8.422,8.42h126.313c5.266,0,8.422-3.156,8.422-8.42V37.895
		C190.525,32.63,187.369,29.475,182.103,29.475z M26.316,159.997c-2.632,0-4.21-1.578-4.21-4.208V16.842
		c0-2.632,1.578-4.212,4.21-4.212h109.472c2.632,0,4.21,1.58,4.21,4.212v138.947c0,2.631-1.578,4.208-4.21,4.208H26.316z
		 M177.891,183.154c0,2.632-1.578,4.208-4.208,4.208H66.315c-2.632,0-4.21-1.574-4.21-4.208v-10.528h82.104
		c5.266,0,8.422-3.156,8.422-8.422V44.211h21.052c2.63,0,4.208,1.576,4.208,4.208V183.154z"/>
</g>
</svg>
