<?xml version="1.0" encoding="utf-8"?>
<!-- Generator: Adobe Illustrator 18.1.0, SVG Export Plug-In . SVG Version: 6.00 Build 0)  -->
<svg version="1.1" id="Layer_1" xmlns="http://www.w3.org/2000/svg" xmlns:xlink="http://www.w3.org/1999/xlink" x="0px" y="0px"
	 viewBox="-3 -6 600 600" enable-background="new -3 -6 600 600" xml:space="preserve">
<g sketch:type="MSPage">
	<path sketch:type="MSShapeGroup" fill="#FFFFFF" d="M323.5,375.3V20.7C323.5,6,311.5-6,296.8-6c-14.7,0-26.7,12-26.7,26.7V376
		L140.8,260.7c-11.3-10-28-8.7-37.3,2c-9.3,10.7-8.7,28,2,37.3l173.3,154l18,16l18-16l173.3-154c11.3-10,12-26.7,2-37.3
		c-10-11.3-26.7-12-37.3-2L323.5,375.3L323.5,375.3z M470.2,540.7c14.7,0,26.7,12,26.7,26.7c0,14.7-12,26.7-26.7,26.7H123.5
		c-14.7,0-26.7-12-26.7-26.7c0-14.7,12-26.7,26.7-26.7H470.2L470.2,540.7z"/>
</g>
</svg>
