<?xml version="1.0" encoding="utf-8"?>
<!-- Generator: Adobe Illustrator 17.0.0, SVG Export Plug-In . SVG Version: 6.00 Build 0)  -->
<!DOCTYPE svg PUBLIC "-//W3C//DTD SVG 1.1//EN" "http://www.w3.org/Graphics/SVG/1.1/DTD/svg11.dtd">
<svg version="1.1" id="Layer_1" xmlns="http://www.w3.org/2000/svg" xmlns:xlink="http://www.w3.org/1999/xlink" x="0px" y="0px"
	 width="200px" height="200px" viewBox="0 0 200 200" enable-background="new 0 0 200 200" xml:space="preserve">
<g>
	<path d="M11.515,145.752c0.093,0.374,0.214,0.743,0.403,1.1c0.209,0.393,0.466,0.742,0.759,1.05
		c9.196,16.376,22.865,30.066,39.217,39.3c0.29,0.271,0.604,0.522,0.971,0.719c0.369,0.2,0.755,0.343,1.145,0.438
		C67.87,195.757,83.541,200,100,200c17.248,0,33.636-4.652,47.976-12.722c0.417-0.098,0.828-0.245,1.222-0.464
		c0.438-0.243,0.802-0.56,1.128-0.905c15.207-9.1,27.942-22.105,36.711-37.517c0.308-0.312,0.576-0.669,0.795-1.074
		c0.196-0.36,0.322-0.733,0.417-1.112C195.717,132.292,200,116.543,200,100c0-16.219-4.126-31.674-11.326-45.386
		c-0.093-0.371-0.214-0.742-0.403-1.095c-0.185-0.351-0.417-0.655-0.669-0.938c-9.036-16.3-22.505-29.962-38.636-39.281
		c-0.322-0.324-0.676-0.622-1.1-0.85c-0.365-0.198-0.746-0.324-1.131-0.419C132.693,4.383,116.753,0,100,0
		C83.227,0,67.262,4.396,53.205,12.057c-0.351,0.1-0.695,0.229-1.028,0.413c-0.355,0.198-0.66,0.445-0.943,0.709
		c-15.774,9.064-28.997,22.288-38.06,38.064c-0.312,0.315-0.6,0.662-0.821,1.071c-0.198,0.365-0.324,0.746-0.419,1.129
		C4.35,67.443,0,83.319,0,100C0,116.364,4.198,131.95,11.515,145.752 M18.628,61.128L50.348,78.3
		c-3.01,6.688-4.705,14.035-4.705,21.7c0,7.486,1.614,14.673,4.492,21.236L18.271,138.1c-5.585-11.653-8.748-24.583-8.748-38.1
		C9.524,86.188,12.812,72.979,18.628,61.128 M100,55.167c24.302,0,44.834,20.531,44.834,44.833S124.302,144.833,100,144.833
		S55.167,124.302,55.167,100S75.698,55.167,100,55.167 M22.817,146.469l31.893-16.878c4.15,6.24,9.54,11.619,15.788,15.757
		l-17.164,31.709C40.95,169.405,30.438,158.872,22.817,146.469 M61.686,181.631L78.86,149.91c6.535,2.855,13.69,4.449,21.14,4.449
		c8.081,0,15.814-1.883,22.789-5.209l17.514,31.477c-12.216,6.269-25.926,9.85-40.303,9.85
		C86.403,190.476,73.393,187.281,61.686,181.631 M148.541,175.843l-17.543-31.527c5.588-3.967,10.431-8.943,14.238-14.643
		l31.71,17.167C169.736,158.447,159.981,168.385,148.541,175.843 M181.545,138.5l-31.721-17.174
		c2.905-6.588,4.535-13.807,4.535-21.329c0-7.34-1.548-14.397-4.324-20.857l31.869-16.864c5.471,11.555,8.571,24.353,8.571,37.724
		C190.476,113.671,187.25,126.745,181.545,138.5 M177.391,53.888l-31.877,16.869c-4.029-6.157-9.252-11.505-15.326-15.657
		l17.168-31.712C159.553,31.079,169.895,41.567,177.391,53.888 M139.053,18.724l-17.169,31.71
		c-6.738-3.064-14.15-4.792-21.886-4.792c-7.541,0-14.776,1.638-21.376,4.559l-17.55-31.54C72.936,12.824,86.165,9.524,100,9.524
		C113.886,9.524,127.157,12.85,139.053,18.724 M52.762,23.314l17.519,31.481c-6.017,4.024-11.231,9.201-15.293,15.188l-31.71-17.167
		C30.741,40.919,40.871,30.784,52.762,23.314"/>
</g>
</svg>
