<?xml version="1.0" encoding="utf-8"?>
<!-- Generator: Adobe Illustrator 17.0.0, SVG Export Plug-In . SVG Version: 6.00 Build 0)  -->
<!DOCTYPE svg PUBLIC "-//W3C//DTD SVG 1.1//EN" "http://www.w3.org/Graphics/SVG/1.1/DTD/svg11.dtd">
<svg version="1.1" id="Layer_1" xmlns="http://www.w3.org/2000/svg" xmlns:xlink="http://www.w3.org/1999/xlink" x="0px" y="0px"
	 width="200px" height="200px" viewBox="0 0 200 200" enable-background="new 0 0 200 200" xml:space="preserve">
<g>
	<g>
		<path d="M88.072,122.944H73.347c-3.248,0-6.408-0.488-9.493-1.462c-3.086-0.975-5.821-2.453-8.217-4.444
			c-2.392-1.986-4.301-4.519-5.72-7.605c-1.419-3.079-2.126-6.73-2.126-10.951c0-1.054,0.059-2.148,0.184-3.287
			c0.121-1.138,0.26-2.31,0.424-3.527l1.462-8.519c1.862-10.629,5.881-18.622,12.046-23.976c6.166-5.354,14.279-8.037,24.34-8.037
			c4.137,0,7.768,0.657,10.891,1.953c3.124,1.299,5.741,3.103,7.851,5.412c2.111,2.314,3.69,5.009,4.748,8.095
			c1.051,3.084,1.579,6.413,1.579,9.981c0,1.052-0.057,2.128-0.179,3.223c-0.125,1.099-0.267,2.211-0.427,3.35l-1.218,7.059
			c-0.409,1.945-1.421,2.919-3.041,2.919H67.382c-0.162,0.896-0.283,1.762-0.364,2.616c-0.078,0.857-0.122,1.642-0.122,2.376
			c0,3.165,0.831,5.376,2.497,6.63c1.66,1.255,4.441,1.886,8.335,1.886h13.725L88.072,122.944z M92.941,75.6
			c0-2.834-0.732-4.984-2.189-6.451c-1.462-1.457-3.896-2.191-7.306-2.191c-4.135,0-7.28,1.282-9.43,3.839
			c-2.15,2.556-3.674,5.936-4.564,10.161H92.33c0.164-0.977,0.307-1.903,0.427-2.796C92.879,77.266,92.941,76.414,92.941,75.6"/>
		<path d="M151.786,51.614c-0.284-0.402-0.745-0.608-1.395-0.608h-42.2c1.14,0.905,2.229,1.863,3.205,2.933
			c2.733,2.996,4.802,6.512,6.156,10.462c0.32,0.946,0.546,1.932,0.788,2.915h11.875l-5.79,33.615
			c-0.407,2.096-0.869,3.569-1.393,4.424c-0.528,0.844-1.634,1.267-3.33,1.267h-16.758l-2.941,16.322h21.185
			c3.396,0,6.36-0.307,8.906-0.914c2.544-0.603,4.723-1.692,6.541-3.266c1.818-1.575,3.311-3.698,4.483-6.361
			c1.169-2.67,2.12-6.058,2.846-10.176l8.245-48.674v-0.488C152.209,52.498,152.067,52.017,151.786,51.614"/>
		<path d="M99.999,200l-1.917-0.702C23.765,171.976,17.917,100.33,17.866,99.61l-0.014-0.388V7.59l4.593-0.804
			C24.029,6.508,61.659,0,99.997,0c38.341,0,75.974,6.508,77.557,6.786l4.593,0.804l-0.013,92.018
			c-0.05,0.722-5.898,72.369-80.222,99.688L99.999,200z M28.954,99.006c0.364,4.42,6.5,64.3,71.043,89.148
			c64.52-24.833,70.677-84.655,71.049-89.151V16.981c-11.23-1.728-41.321-5.88-71.049-5.88c-29.752,0-59.817,4.151-71.043,5.88
			V99.006"/>
	</g>
</g>
</svg>
