<?xml version="1.0" encoding="utf-8"?>
<!-- Generator: Adobe Illustrator 17.0.0, SVG Export Plug-In . SVG Version: 6.00 Build 0)  -->
<!DOCTYPE svg PUBLIC "-//W3C//DTD SVG 1.1//EN" "http://www.w3.org/Graphics/SVG/1.1/DTD/svg11.dtd">
<svg version="1.1" id="Layer_1" xmlns="http://www.w3.org/2000/svg" xmlns:xlink="http://www.w3.org/1999/xlink" x="0px" y="0px"
	 width="200px" height="200px" viewBox="0 0 200 200" enable-background="new 0 0 200 200" xml:space="preserve">
<path fill="#231F20" d="M85.618,48.119c1.198-0.043,0.462-2.028,2.614-2.256C84.688,45.6,84.444,48.162,85.618,48.119z
	 M180.169,164.736c-3.204-1.989-10.782-4.092-11.42-18.637c-2.868,2.548-2.537,16.103,5.469,18.793
	c8.944,3.002,14.531,8.034-2.095,13.72c-11.008,3.764-12.88,4.924-21.595,12.178c-8.817,7.34-21.904,4.425-19.618-11.03
	c1.191-8.051,1.874-14.704-0.129-21.702c-0.978-3.418-1.464-7.804-0.796-10.88c1.299-5.982,4.537-7.781,7.709-2.04
	c1.992,3.604,2.69,7.818,9.821,8.159c11.201,0.537,13.42-10.825,17.001-11.342c2.389-0.344,4.774-7.103,2.956-18.037
	c-1.948-11.705-8.837-30.185-17.668-39.559c-7.34-7.789-11.966-14.618-14.875-24.366c-2.445-8.19-3.81-16.161-3.308-23.783
	c0.653-9.873-4.823-23.614-13.539-30.08c-5.458-4.047-14.015-6.214-21.761-6.129c-4.343,0.046-8.432,0.681-11.573,2.386
	c-12.93,7.019-14.736,17.045-14.542,28.488c0.181,10.75,0.548,23.015,1.767,34.684c-1.444,5.357-8.973,15.515-13.792,21.696
	c-6.48,6.403-9.754,18.774-13.947,29.584c-2.237,5.763-6.005,8.364-6.321,15.774c-0.089,2.074-0.017,7.432,1.963,5.901
	c7.579-5.862,17.065,8.917,31.393,31.471c2.747,4.324,12.427,22.533-4.542,24.895c-5.676,0.79-14.813-3.302-23.667-5.469
	c-7.954-1.946-16.032-3.097-20.553-4.367c-2.722-0.765-3.859-1.741-4.096-2.881c-0.627-3.022,3.305-7.262,3.504-10.839
	c0.199-3.579-1.305-5.438-2.537-8.358c-1.235-2.926-1.556-5.117-0.568-6.373c0.768-0.975,2.329-1.383,4.868-1.134
	c3.218,0.317,7.106-0.343,9.195-1.617c3.518-2.145,5.172-6.543,3.59-11.841c0,5.184-1.7,7.148-5.963,9.518
	c-4.017,2.236-10.217,0.429-13.067,2.9c-3.429,2.976,1.224,10.658,0.843,16.297c-0.292,4.332-4.814,9.215-2.797,13.559
	c2.029,4.372,11.487,4.849,21.351,6.911c14.018,2.933,22.193,8.037,28.67,8.279c9.449,0.35,10.897-9.35,25.734-9.481
	c4.327-0.226,8.56-0.361,12.788-0.415c4.791-0.061,9.578-0.021,14.491,0.098c9.873,0.237,6.478,5.391,12.885,8.683
	c5.405,2.776,15.12,1.68,17.446-0.537c3.146-3.001,11.593-10.219,18.064-13.48C174.979,180.265,193.922,173.269,180.169,164.736z
	 M123.782,59.619c0.802-0.84,1.213,1.451,3.365,2.808c1.706,1.077,3.365,0.279,3.797,2.459c0.308,1.564-0.667,3.261-1.979,3.039
	C126.683,67.541,121.416,62.104,123.782,59.619z M110.61,15.048c0.363-1.083-0.731-3.494,1.494-3.637
	c0.863-0.055,1.761,0.725,2.678,1.599c0.917,0.877,2.456,1.487,2.248,2.023c-0.476,1.227-3.057,0.946-3.613,1.145
	c-2.148,0.77-2.76,2.819-3.829,1.963C108.521,17.286,110.203,16.269,110.61,15.048z M57.073,98.347
	c0.917-1.585,0.739-3.564,1.702-3.272c0.964,0.292,0.428,1.399-0.233,3.217c-0.562,1.547-2.185,2.894-2.747,2.825
	C54.272,100.932,56.239,99.789,57.073,98.347z M128.945,168.638c-0.496,6.24-2.225,12.422-3.201,18.692
	c-3.304-0.126-2.981-2.546-1.922-5.936c0.935-2.993,2.444-6.744,2.542-10.34c0.09-3.255-0.266-5.288-1.086-5.793
	c-0.82-0.505-2.106,0.519-3.882,3.379c-3.789,6.104-11.999,8.788-19.665,9.748c-7.666,0.962-14.791,0.2-18.566-4.028
	c-1.29-1.446-3.429,0.395-3.683,0.777c-0.341,0.516,1.249,1.513,2.447,3.712c1.751,3.21,3.414,8.083-0.731,10.306
	c0.049-11.302-3.529-11.963-7.186-18.872c7.155-0.738,8.099-8.309,4.73-11.616c-2.776-2.724-18.095-14.096-22.092-18.566
	c-1.856-2.075-4.37-3.094-5.435-5.426c-2.45-5.363-4.167-13.021-1.059-18.519c0.563-0.995,0.924-0.548,0.494,1.523
	c-2.441,11.732,5.198,21.315,6.88,16.4c1.161-3.394,0.084-9.469,0.705-14.292c1.099-8.537,8.869-24.927,12.282-25.864
	c-5.264-9.749,6.173-17.382,6.034-25.939c-0.092-5.564,4.888,6.842,9.891,9.474c5.59,2.937,11.732-5.536,20.451-9.836
	c2.468-1.217,5.631-2.614,5.419-3.651c-1.024-5.004-11.454,6.171-20.767,6.548c-4.253,0.171-5.829-0.834-7.472-2.421
	c-4.964-4.797,0.507-0.794,7.887-2.129c3.281-0.594,4.382-1.14,7.864-2.546c3.481-1.408,7.46-3.489,11.397-4.56
	c2.742-0.745,2.514-2.805,1.448-3.423c-0.615-0.357-1.524-0.323-2.245,0.924c-1.691,2.923-9.637,4.611-12.116,5.37
	c-3.186,0.973-6.709,1.884-11.388,1.694c-7.111-0.289-5.452-3.547-10.539-6.464c-1.492-0.854-1.088-3.1,0.894-5.082
	c1.038-1.041,3.882-1.625,5.293-3.988c0.199-0.332,2.017-2.234,3.443-3.218c0.493-0.341,0.536-9.022-3.919-9.201
	c-3.784-0.153-4.86,2.782-4.701,5.703c0.158,2.923,1.706,5.333,2.738,5.321c1.985-0.02,0.125,2.173-0.963,2.526
	c-1.653,0.539-3.917-6.505-3.657-9.887c0.272-3.523,2.107-9.761,6.565-9.639c4.015,0.109,6.924,5.142,6.779,13.824
	c-0.026,1.472,6.51-0.702,8.69,1.601c1.559,1.65-5.344-15.382,10.026-16.554c4.052,0.776,7.939,2.122,9.556,11.432
	c-0.598,0.969,1.008,7.465-1.492,8.234c-3.05,0.941-4.933-0.136-3.171-3.041c1.207-2.918,0.029-10.34-6.144-9.894
	c-6.175,0.445-5.356,11.4-3.663,11.617c1.692,0.216,5.956,3.241,8.93,3.821c9.768,1.901,2.591,7.5,3.859,14.277
	c1.432,7.654,6.473,5.633,11.005,25.901c0.946,1.235,4.699,2.402,8.357,17.974c3.288,14.011-1.368,24.199,6.542,23.36
	c1.781-0.188,4.384-0.686,5.518-4.655c2.959-10.375-1.484-22.739-5.969-31.082c-2.614-4.865-5.073-8.176-6.373-9.314
	c5.142,3.039,11.714,12.744,13.23,19.95c1.991,9.464,3.414,13.471,0.401,23.48c1.738,0.869,6.067,2.709,6.067,4.774
	c-4.508-3.706-18.311-4.364-18.666,4.497c-2.355,0.047-4.135,0.24-5.65,2.04C124.354,148.321,129.507,161.546,128.945,168.638z
	 M82.152,39.317c-0.716,0.153-0.881-1.799,0.473-1.455c0.589,0.151,2.026,2.184,1.565,4.95c-0.061,0.363-0.233,0.392-0.392,0.392
	c-0.962-0.005-1.074-0.875-0.817-2.263C83.167,39.94,82.571,39.225,82.152,39.317z M111.095,41.043
	c-0.009,0.367-1.168,0.767-1.184,0.609c-0.188-1.68-1.054-3.238-1.954-3.506c-0.704-0.21-1.096-0.901,0.295-1.028
	C108.858,37.065,111.168,38.336,111.095,41.043z M94.729,46.194c2.093-0.543,2.103,1.573,3.238,1.194
	C99.081,47.014,97.953,44.7,94.729,46.194z"/>
</svg>
