<?xml version="1.0" encoding="utf-8"?>
<!-- Generator: Adobe Illustrator 17.0.0, SVG Export Plug-In . SVG Version: 6.00 Build 0)  -->
<!DOCTYPE svg PUBLIC "-//W3C//DTD SVG 1.1//EN" "http://www.w3.org/Graphics/SVG/1.1/DTD/svg11.dtd">
<svg version="1.1" id="Layer_1" xmlns="http://www.w3.org/2000/svg" xmlns:xlink="http://www.w3.org/1999/xlink" x="0px" y="0px"
	 width="200px" height="200px" viewBox="0 0 200 200" enable-background="new 0 0 200 200" xml:space="preserve">
<path d="M127.984,32.469c6.561-8.423,11.546-20.312,9.739-32.469c-10.722,0.741-23.262,7.559-30.582,16.448
	c-6.648,8.072-12.132,20.038-9.995,31.674C108.847,48.484,120.957,41.492,127.984,32.469z M180.118,67.109
	c-10.31-12.851-24.777-20.287-38.43-20.287c-18.064,0-25.699,8.578-38.228,8.578c-12.92,0-22.742-8.564-38.365-8.564
	c-15.349,0-31.667,9.319-42.013,25.25C8.523,94.496,10.992,136.654,34.594,172.576c8.441,12.844,19.716,27.289,34.458,27.423
	c13.104,0.123,16.813-8.358,34.588-8.459c17.782-0.098,21.144,8.553,34.244,8.434c14.742-0.145,26.635-16.134,35.076-28.985
	c6.048-9.2,8.3-13.845,12.996-24.26C151.831,133.838,146.343,85.614,180.118,67.109z"/>
</svg>
