<?xml version="1.0" encoding="utf-8"?>
<!-- Generator: Adobe Illustrator 17.0.0, SVG Export Plug-In . SVG Version: 6.00 Build 0)  -->
<!DOCTYPE svg PUBLIC "-//W3C//DTD SVG 1.1//EN" "http://www.w3.org/Graphics/SVG/1.1/DTD/svg11.dtd">
<svg version="1.1" id="Layer_1" xmlns="http://www.w3.org/2000/svg" xmlns:xlink="http://www.w3.org/1999/xlink" x="0px" y="0px"
	 width="250px" height="250px" viewBox="0 0 250 250" enable-background="new 0 0 250 250" xml:space="preserve">
<path d="M114.992,192.945c-10.562,0-19.125,8.562-19.125,19.125c0,10.562,8.563,19.124,19.125,19.124s19.125-8.562,19.125-19.124
	C134.118,201.508,125.554,192.945,114.992,192.945z M194.862,192.945c-10.562,0-19.125,8.562-19.125,19.125
	c0,10.562,8.563,19.124,19.125,19.124c10.562,0,19.125-8.562,19.125-19.124C213.988,201.508,205.424,192.945,194.862,192.945z
	 M239.856,63.778H82.8c-3.588-12.532-7.176-25.064-10.763-37.595c-1.231-4.306-5.181-7.378-9.686-7.378H9.721
	C-3.24,18.805-3.24,38.9,9.718,38.9h45.053c3.461,12.091,6.923,24.181,10.384,36.272c0.141,1.21,0.472,2.39,0.995,3.475
	c8.744,30.543,17.488,61.085,26.232,91.627c1.231,4.304,5.184,7.378,9.689,7.378h106.186c4.662,0,8.25-3.106,9.689-7.378
	c10.533-31.259,21.065-62.519,31.598-93.779C251.652,70.24,246.109,63.778,239.856,63.778z M201.055,157.557h-91.407
	c-7.031-24.562-14.063-49.123-21.095-73.684h137.329C217.606,108.435,209.331,132.996,201.055,157.557z"/>
</svg>
