<?xml version="1.0" encoding="utf-8"?>
<!-- Generator: Adobe Illustrator 18.1.0, SVG Export Plug-In . SVG Version: 6.00 Build 0)  -->
<svg version="1.1" id="Layer_1" xmlns="http://www.w3.org/2000/svg" xmlns:xlink="http://www.w3.org/1999/xlink" x="0px" y="0px"
	 viewBox="0 0 16 16" enable-background="new 0 0 16 16" xml:space="preserve">
<path d="M4.6,0H1.9C1.6,0,1.4,0.1,1.3,0.3C0.9,1,0,2.7,0,5.8c-0.1,3.6,4.2,8.8,8.3,9.7c3.5,0.7,5.7,0.5,6.6,0.4
	c0.3,0,0.5-0.2,0.5-0.4l0.6-2c0.1-0.3-0.1-0.5-0.4-0.7l-3.9-1.6c-0.3-0.1-0.7,0-0.9,0.2c-0.6,0.8-1.9,1.1-3.3,0.3
	c-1.3-0.9-2.8-3.1-3.5-4.4C3.3,5.9,4.3,4.7,5.4,4.4C5.7,4.3,5.9,4,5.8,3.7L5.2,0.5C5.2,0.2,4.9,0,4.6,0z"/>
</svg>
