<?xml version="1.0" encoding="utf-8"?>
<!-- Generator: Adobe Illustrator 17.0.0, SVG Export Plug-In . SVG Version: 6.00 Build 0)  -->
<!DOCTYPE svg PUBLIC "-//W3C//DTD SVG 1.1//EN" "http://www.w3.org/Graphics/SVG/1.1/DTD/svg11.dtd">
<svg version="1.1" id="Layer_1" xmlns="http://www.w3.org/2000/svg" xmlns:xlink="http://www.w3.org/1999/xlink" x="0px" y="0px"
	 width="16px" height="16px" viewBox="0 0 16 16" enable-background="new 0 0 16 16" xml:space="preserve">
<path d="M12,12v-2H9.723C9.894,10.295,10,10.634,10,11s-0.106,0.705-0.277,1H12z M2,3h12c0.552,0,1-0.448,1-1c0-0.552-0.448-1-1-1H2
	C1.448,1,1,1.448,1,2C1,2.552,1.448,3,2,3z M6,11c0-0.366,0.106-0.705,0.277-1H4v2h2.277C6.106,11.705,6,11.366,6,11z M14,7H2
	C1.448,7,1,7.448,1,8v6c0,0.552,0.448,1,1,1h12c0.552,0,1-0.448,1-1V8C15,7.448,14.552,7,14,7z M13,13H3V9h10V13z M14,4H2
	C1.448,4,1,4.448,1,5c0,0.552,0.448,1,1,1h12c0.552,0,1-0.448,1-1C15,4.448,14.552,4,14,4z"/>
</svg>
