<?xml version="1.0" encoding="utf-8"?>
<!-- Generator: Adobe Illustrator 17.0.0, SVG Export Plug-In . SVG Version: 6.00 Build 0)  -->
<!DOCTYPE svg PUBLIC "-//W3C//DTD SVG 1.1//EN" "http://www.w3.org/Graphics/SVG/1.1/DTD/svg11.dtd">
<svg version="1.1" id="Layer_1" xmlns="http://www.w3.org/2000/svg" xmlns:xlink="http://www.w3.org/1999/xlink" x="0px" y="0px"
	 width="200px" height="200px" viewBox="0 0 200 200" enable-background="new 0 0 200 200" xml:space="preserve">
<path d="M137.265,83.622h-4.162v-9.157C133.102,56.289,118.314,41.5,100.137,41.5c-18.178,0-32.965,14.789-32.965,32.965v9.157
	h-4.438c-2.942,0-5.328,2.386-5.328,5.328v53.223c0,2.942,2.386,5.328,5.328,5.328h74.531c2.942,0,5.328-2.386,5.328-5.328V88.95
	C142.593,86.008,140.207,83.622,137.265,83.622 M77.827,74.465c0-12.302,10.008-22.31,22.31-22.31s22.31,10.008,22.31,22.31v9.157
	h-44.62V74.465z M131.937,136.845H68.062V94.278h4.438h55.275h4.162v42.567H131.937z"/>
<g>
	<path d="M170.772,29.249C151.263,9.746,125.634,0,100,0S48.737,9.746,29.228,29.249C-9.79,68.254-9.719,131.741,29.299,170.746
		s102.384,39.005,141.402,0S209.79,68.254,170.772,29.249z M161.137,161.115c-33.82,33.809-88.455,33.809-122.275,0
		c-33.82-33.808-33.82-88.355,0-122.164C55.772,22.046,77.884,13.538,100,13.527s44.299,8.449,61.208,25.353
		C195.028,72.688,194.957,127.306,161.137,161.115z"/>
</g>
</svg>
