<?xml version="1.0" encoding="utf-8"?>
<!-- Generator: Adobe Illustrator 17.0.0, SVG Export Plug-In . SVG Version: 6.00 Build 0)  -->
<!DOCTYPE svg PUBLIC "-//W3C//DTD SVG 1.1//EN" "http://www.w3.org/Graphics/SVG/1.1/DTD/svg11.dtd">
<svg version="1.1" id="Layer_1" xmlns="http://www.w3.org/2000/svg" xmlns:xlink="http://www.w3.org/1999/xlink" x="0px" y="0px"
	 width="200px" height="200px" viewBox="0 0 200 200" enable-background="new 0 0 200 200" xml:space="preserve">
<path d="M170.312,79.476h-7.853V62.198C162.458,27.903,134.556,0,100.26,0C65.962,0,38.062,27.903,38.062,62.198v17.277h-8.373
	c-5.551,0-10.052,4.501-10.052,10.052v100.42c0,5.551,4.501,10.052,10.052,10.052h140.624c5.551,0,10.052-4.501,10.052-10.052
	V89.528C180.364,83.977,175.863,79.476,170.312,79.476 M58.166,62.198c0-23.211,18.883-42.094,42.094-42.094
	s42.094,18.883,42.094,42.094v17.277H58.166V62.198z M160.26,179.895H39.74V99.58h8.373h104.292h7.853V179.895z"/>
</svg>
