<?xml version="1.0" encoding="utf-8"?>
<!-- Generator: Adobe Illustrator 18.1.0, SVG Export Plug-In . SVG Version: 6.00 Build 0)  -->
<svg version="1.1" id="Layer_1" xmlns="http://www.w3.org/2000/svg" xmlns:xlink="http://www.w3.org/1999/xlink" x="0px" y="0px"
	 viewBox="-3 -6 600 600" enable-background="new -3 -6 600 600" xml:space="preserve">
<path fill="#FFFFFF" d="M297,176.2c-65,0-117.8,52.8-117.8,117.8S232,411.8,297,411.8S414.8,358.9,414.8,294S361.9,176.2,297,176.2z
	 M297,371.6c-42.8,0-77.6-34.8-77.6-77.6c0-42.8,34.8-77.6,77.6-77.6s77.6,34.8,77.6,77.6C374.6,336.8,339.8,371.6,297,371.6z
	 M594.7,290.6c-0.3-0.5-33.8-49.4-86.6-97.5c-49.1-44.7-125.6-98-211-98c-85.4,0-161.9,53.3-211,98c-52.9,48.1-86.3,97-86.6,97.5
	L-3,294l2.3,3.4c0.3,0.5,33.8,49.4,86.6,97.5c49.1,44.7,125.6,98,211,98c85.4,0,161.9-53.3,211-98c52.9-48.1,86.3-97,86.6-97.5
	l2.3-3.4L594.7,290.6z M453.9,388.1C399.5,431,346.7,452.8,297,452.8c-49.7,0-102.5-21.8-156.9-64.6c-42.5-33.5-75.6-72-93.1-94.1
	c17.5-22.2,50.5-60.7,93-94.1c54.4-42.9,107.2-64.6,157.1-64.6c49.7,0,102.5,21.7,156.9,64.6c42.5,33.5,75.6,72,93.1,94.1
	C529.5,316.1,496.4,354.6,453.9,388.1z"/>
</svg>
