<?xml version="1.0" encoding="utf-8"?>
<!-- Generator: Adobe Illustrator 17.0.0, SVG Export Plug-In . SVG Version: 6.00 Build 0)  -->
<!DOCTYPE svg PUBLIC "-//W3C//DTD SVG 1.1//EN" "http://www.w3.org/Graphics/SVG/1.1/DTD/svg11.dtd">
<svg version="1.1" id="Layer_1" xmlns="http://www.w3.org/2000/svg" xmlns:xlink="http://www.w3.org/1999/xlink" x="0px" y="0px"
	 width="200px" height="200px" viewBox="0 0 200 200" enable-background="new 0 0 200 200" xml:space="preserve">
<g>
	<path d="M200,99.217c0-17.573-11.283-32.477-26.982-37.962c-10.099-30.62-38.968-52.791-72.931-52.791
		c-33.935,0-62.779,22.135-72.903,52.719C11.377,66.61,0,81.572,0,99.217c0,22.222,18.018,40.238,40.24,40.238v-73.44
		c8.146-25.286,31.887-43.634,59.847-43.634c27.767,0,51.373,18.101,59.679,43.117v68.964c-2.865,6.042-19.728,39.483-42.013,40.535
		c-1.731-4.705-6.211-8.078-11.517-8.078c-6.793,0-12.308,5.508-12.308,12.308c0,6.795,5.513,12.31,12.308,12.31
		c5.344,0,9.847-3.422,11.548-8.182c26.562-0.953,45.002-35.888,49.178-44.577C185.741,135.383,200,118.979,200,99.217"/>
</g>
</svg>
