<?xml version="1.0" encoding="utf-8"?>
<!-- Generator: Adobe Illustrator 18.1.0, SVG Export Plug-In . SVG Version: 6.00 Build 0)  -->
<svg version="1.1" id="Layer_1" xmlns="http://www.w3.org/2000/svg" xmlns:xlink="http://www.w3.org/1999/xlink" x="0px" y="0px"
	 viewBox="0 0 16 16" enable-background="new 0 0 16 16" xml:space="preserve">
<path d="M8,6C6.9,6,6,6.9,6,8s0.9,2,2,2c1.1,0,2-0.9,2-2S9.1,6,8,6z M8,2C3.6,2,0,7.8,0,8c0,0.2,3.6,6,8,6c4.4,0,7.9-6,8-6
	C16.1,8,12.4,2,8,2z M8,12c-2.2,0-4-1.8-4-4c0-2.2,1.8-4,4-4c2.2,0,4,1.8,4,4C12,10.2,10.2,12,8,12z"/>
</svg>
