<?xml version="1.0" encoding="utf-8"?>
<!-- Generator: Adobe Illustrator 17.0.0, SVG Export Plug-In . SVG Version: 6.00 Build 0)  -->
<!DOCTYPE svg PUBLIC "-//W3C//DTD SVG 1.1//EN" "http://www.w3.org/Graphics/SVG/1.1/DTD/svg11.dtd">
<svg version="1.1" id="Layer_1" xmlns="http://www.w3.org/2000/svg" xmlns:xlink="http://www.w3.org/1999/xlink" x="0px" y="0px"
	 width="200px" height="200px" viewBox="0 0 200 200" enable-background="new 0 0 200 200" xml:space="preserve">
<g>
	<path d="M100,139.444c-4.918,0-8.997,4.007-8.997,8.923c0,4.916,4.079,8.994,8.997,8.994c4.918,0,8.997-4.078,8.997-8.994
		C108.997,143.451,104.918,139.444,100,139.444z M99.904,129.554c3.756,0.053,6.844-2.948,6.897-6.703
		c0.001-0.064,0.001-0.128,0-0.192V49.432c0.078-3.754-2.903-6.862-6.658-6.94c-0.072-0.002-0.142-0.002-0.213-0.001
		c-0.237,0.011-0.474,0.035-0.708,0.071c-3.476,0.401-6.081,3.372-6.022,6.869v73.228C93.146,126.415,96.148,129.501,99.904,129.554
		z M170.772,29.249C151.263,9.746,125.634,0,100,0C74.366,0,48.737,9.746,29.228,29.249C-9.79,68.254-9.719,131.741,29.299,170.746
		c39.018,39.005,102.384,39.005,141.402,0C209.719,131.741,209.79,68.254,170.772,29.249z M161.137,161.115
		c-33.82,33.809-88.455,33.809-122.275,0c-33.82-33.808-33.82-88.355,0-122.164C55.772,22.046,77.884,13.538,100,13.527
		c22.116-0.011,44.299,8.449,61.208,25.353C195.028,72.688,194.957,127.306,161.137,161.115z"/>
</g>
</svg>
